<svg width="40" height="40" viewBox="0 0 40 40" fill="none" xmlns="http://www.w3.org/2000/svg">
<path fill-rule="evenodd" clip-rule="evenodd" d="M20 36C28.8366 36 36 28.8366 36 20C36 11.1634 28.8366 4 20 4C11.1634 4 4 11.1634 4 20C4 28.8366 11.1634 36 20 36ZM27.4812 18.1028C28.4658 18.3713 29.1596 18.9622 29.5439 19.8643C29.9469 20.7776 30.1033 21.7371 29.9303 22.7025C29.7094 23.9565 28.9018 24.8261 27.7177 25.3896C27.1383 25.6691 26.5273 25.8909 25.9101 26.1149C25.5703 26.2383 25.2285 26.3623 24.8892 26.4971C24.8619 26.5007 24.8385 26.5106 24.8126 26.5215C24.7884 26.5318 24.7619 26.5431 24.7278 26.5509C24.8423 27.0137 24.9797 27.5399 25.1201 28.0778C25.2622 28.6219 25.4073 29.178 25.5352 29.6927L23.4709 30.1535C23.3576 29.7275 23.2383 29.2608 23.1179 28.7899C22.9618 28.1793 22.8039 27.5615 22.655 27.0162C22.5776 27.0316 22.5005 27.0468 22.4233 27.0621C21.9606 27.1536 21.4979 27.2451 20.9973 27.3566C21.1185 27.8481 21.2614 28.4027 21.4061 28.9644C21.5439 29.499 21.6833 30.04 21.8072 30.5392L19.743 31C19.5956 30.449 19.4347 29.8336 19.2769 29.2296C19.1441 28.7215 19.0134 28.2215 18.8946 27.7746C18.1847 27.924 17.4936 28.0713 16.8025 28.2186C16.1114 28.3659 15.4203 28.5132 14.7104 28.6625C14.6619 27.922 14.6082 27.2208 14.5509 26.4727L14.5386 26.3109L15.909 26.0067L15.9312 26.0055C16.572 25.8558 16.7753 25.5587 16.6121 24.9713L16.6121 24.9711C15.9265 22.2597 15.241 19.5483 14.5333 16.8381C14.3524 16.1863 13.8798 15.91 13.1561 16.0193C12.9509 16.0489 12.754 16.0919 12.5571 16.1349C12.4915 16.1493 12.4259 16.1636 12.3599 16.1774C12.3096 16.1885 12.2597 16.1997 12.2099 16.2109C11.9903 16.2601 11.7725 16.309 11.5243 16.346C11.4226 15.971 11.3284 15.602 11.233 15.2287C11.1574 14.9329 11.0811 14.6344 11 14.3282C11.6443 14.1911 12.2817 14.0509 12.9208 13.9103C13.6681 13.7459 14.4176 13.581 15.1829 13.42C15.0318 12.5419 14.7185 11.2968 14.4485 10.3027L16.5127 9.8419C16.7079 10.5493 16.9207 11.3807 17.1116 12.1269C17.1836 12.408 17.2524 12.677 17.316 12.9227L18.9674 12.5541C18.8539 12.0765 18.7034 11.4973 18.5506 10.9095C18.4223 10.4154 18.2923 9.91514 18.1813 9.46414L20.232 9C20.3753 9.52723 20.531 10.1308 20.6817 10.7147C20.8151 11.2317 20.9446 11.7334 21.0579 12.1531C21.6524 12.1122 22.216 12.0771 22.7896 12.0578C23.6037 12.0375 24.3865 12.1497 25.1626 12.4338C27.0537 13.1386 28.0926 16.2105 26.152 17.7429C26.1385 17.7549 26.1253 17.7711 26.1101 17.7898C26.0921 17.8119 26.0713 17.8374 26.044 17.8632C26.2116 17.891 26.3772 17.9115 26.5404 17.9317C26.8643 17.9718 27.1789 18.0108 27.4812 18.1028ZM19.0147 14.9085L17.961 15.1503C18.2086 16.1392 18.4588 17.0902 18.7081 18.0376C18.7869 18.3371 18.8656 18.6362 18.9442 18.9361C19.0841 18.9061 19.2272 18.8782 19.3722 18.8498C19.5733 18.8105 19.7778 18.7706 19.9819 18.7238C20.8249 18.5303 21.6429 18.2974 22.3761 17.8567C23.1328 17.4352 23.4603 16.7881 23.3 16.0412C23.146 15.3225 22.6242 14.8406 21.7686 14.7039C20.8364 14.555 19.9192 14.7035 19.0147 14.9085ZM21.6243 24.8142C22.7863 24.5367 23.9592 24.2566 24.9329 23.5576C25.6054 23.0753 25.9356 22.4689 25.7282 21.6837C25.5072 20.8952 24.9129 20.4622 24.0895 20.3401C22.9226 20.1469 21.7861 20.3483 20.6178 20.6087L19.4015 20.884C19.6251 21.7755 19.8502 22.6619 20.0763 23.5518C20.2037 24.0535 20.3314 24.5564 20.4593 25.0619C20.6163 25.027 20.7688 24.9967 20.9189 24.9669C21.0964 24.9317 21.2704 24.8971 21.4441 24.8566L21.5143 24.8404C21.551 24.8317 21.5876 24.8229 21.6243 24.8142Z" fill="white"/>
</svg>
