<svg width="40" height="40" viewBox="0 0 40 40" fill="none" xmlns="http://www.w3.org/2000/svg">
<path d="M27.9575 24.6772C28.1176 23.6268 27.8374 22.7164 27.1271 21.9661C26.807 21.6059 26.3968 21.3458 26.0067 21.0157C26.0767 20.9957 26.1267 20.9656 26.1667 20.9556C28.6978 20.4754 29.4781 17.034 28.2176 15.4133C27.6974 14.7531 27.0771 14.2528 26.3568 13.8627C25.8466 13.5926 25.3364 13.3425 24.7962 13.0824C25.0763 12.112 25.4965 10.7514 25.8066 9.67094L23.7657 9.08069C23.4356 10.1411 23.0554 11.4717 22.7553 12.4121L21.1146 11.9319C21.4048 10.9615 21.8049 9.66094 22.105 8.60049L20.0542 8.00024C19.7441 9.08069 19.3339 10.4213 18.9837 11.3316C17.5832 10.9015 16.2226 10.5113 14.842 10.0911C14.6219 10.8414 14.4018 11.5417 14.1917 12.272C14.4819 12.3821 14.742 12.4521 15.0121 12.5321C15.2722 12.6122 15.5323 12.6822 15.7924 12.7822C16.4827 13.0423 16.7428 13.5426 16.5427 14.2528C15.6724 17.1841 14.782 20.1053 13.8916 23.0265C13.7115 23.6668 13.3714 23.8468 12.7311 23.6668C12.7111 23.6568 12.7111 23.6568 12.7111 23.6568L11.3506 23.2566C10.9604 24.0569 10.6002 24.7972 10.2101 25.5776C11.6107 26.0077 12.9412 26.4079 14.3418 26.8381C14.0317 27.8985 13.6315 29.2291 13.3114 30.3295L15.3622 30.9298C15.7024 29.8293 16.0825 28.5288 16.4027 27.4984C16.9829 27.6684 17.5031 27.8385 18.0333 28.0086C17.7332 29.059 17.3331 30.3396 17.0229 31.4L19.0738 32.0002C19.4139 30.8998 19.7841 29.6092 20.0942 28.6088C20.1642 28.6288 20.2143 28.6188 20.2643 28.6388C21.3047 28.7589 22.3151 28.969 23.3356 29.009C24.6761 29.069 25.8566 28.6488 26.737 27.5684C27.4173 26.7381 27.8074 25.7476 27.9575 24.6772ZM20.4544 14.3729L21.5048 14.673C22.4052 14.9331 23.2855 15.2533 24.0158 15.8635C24.6861 16.4238 24.8762 17.1441 24.6161 17.9044C24.346 18.6947 23.7057 19.1449 22.8153 19.1649C21.935 19.2149 21.0946 19.0248 20.2543 18.7847C19.9041 18.6847 19.564 18.5646 19.2338 18.4646C19.634 17.114 20.0242 15.7735 20.4544 14.3729ZM21.915 25.8677C20.6444 26.0478 19.4339 25.6976 18.2334 25.3675L18.1634 25.3475C17.8433 25.2574 17.5331 25.1474 17.193 25.0473C17.6532 23.5367 18.1034 22.0461 18.5636 20.5455L19.7741 20.8956C20.9346 21.2358 22.035 21.6159 22.9454 22.3862C23.5957 22.9165 23.8758 23.6268 23.6357 24.4871C23.3856 25.3375 22.7653 25.7476 21.915 25.8677Z" fill="white"/>
</svg>
