<svg width="40" height="40" viewBox="0 0 40 40" fill="none" xmlns="http://www.w3.org/2000/svg">
<path d="M26.6213 23.3934C26.6213 24.6728 26.1532 25.7728 25.217 26.6934C24.2809 27.5983 22.9312 28.16 21.1681 28.3785V30.9998H18.8277V28.4487C17.673 28.3863 16.573 28.1834 15.5277 27.8402C14.4823 27.4969 13.6397 27.0756 13 26.5764L14.2872 23.721C14.8801 24.1579 15.5745 24.5246 16.3702 24.821C17.166 25.1175 17.9851 25.3047 18.8277 25.3827V21.4742C17.7199 21.209 16.7837 20.9125 16.0191 20.5849C15.2546 20.2572 14.6149 19.7813 14.1 19.1572C13.5851 18.5175 13.3277 17.6749 13.3277 16.6295C13.3277 15.3345 13.7957 14.2267 14.7319 13.3061C15.6837 12.37 17.0489 11.8005 18.8277 11.5976V8.99976H21.1681V11.5508C23.0872 11.7068 24.6709 12.1827 25.9191 12.9785L24.7489 15.8572C23.5787 15.1863 22.3851 14.7806 21.1681 14.6402V18.6189C22.2603 18.8686 23.1809 19.1572 23.9298 19.4849C24.6943 19.7969 25.334 20.2728 25.8489 20.9125C26.3638 21.5366 26.6213 22.3636 26.6213 23.3934ZM17.0957 16.4423C17.0957 16.8324 17.244 17.1522 17.5404 17.4019C17.8369 17.6515 18.266 17.8622 18.8277 18.0338V14.7104C18.2348 14.8508 17.7979 15.0771 17.517 15.3891C17.2362 15.6856 17.0957 16.0366 17.0957 16.4423ZM21.1681 25.2891C21.7298 25.1643 22.1511 24.9615 22.4319 24.6806C22.7128 24.3998 22.8532 24.0643 22.8532 23.6742C22.8532 23.2842 22.705 22.9643 22.4085 22.7147C22.1277 22.465 21.7142 22.2466 21.1681 22.0593V25.2891Z" fill="white"/>
</svg>
