<svg width="40" height="40" viewBox="0 0 40 40" fill="none" xmlns="http://www.w3.org/2000/svg">
<path d="M21.2745 25.5616C19.3668 25.5616 17.7283 24.6065 16.8234 23.1262H22.4973V21.3593H16.1386C16.0897 21.0489 16.0652 20.7385 16.0652 20.4043C16.0652 20.07 16.0897 19.7357 16.163 19.4253H22.4973V17.6585H16.8478C17.7527 16.202 19.3913 15.2708 21.2745 15.2708C22.8886 15.2708 24.5761 16.1304 25.75 17.4436L28 14.7694C26.3125 13.0742 23.7446 11.9998 21.25 11.9998C17.1168 11.9998 13.7908 14.2919 12.5924 17.6585H10V19.4253H12.1766C12.1522 19.7596 12.1277 20.0939 12.1277 20.452C12.1277 20.7624 12.1522 21.0728 12.1766 21.3593H10V23.1262H12.5435C13.6685 26.5882 16.9701 28.9998 21.0788 28.9998C23.5978 28.9998 26.2147 27.8298 28 26.0152L25.75 23.6037C24.5027 24.7975 22.8152 25.5616 21.2745 25.5616Z" fill="white"/>
</svg>
