<svg width="40" height="40" viewBox="0 0 40 40" fill="none" xmlns="http://www.w3.org/2000/svg">
<path d="M17.5702 26.0942H21.1378L18.1681 21.4432C19.8622 20.6378 20.7791 19.0674 20.7791 16.8929C20.7791 13.7721 18.7063 12.0002 15.0589 12.0002H9V26.0942H12.1491V22.0674H15.0589H15.3579L17.5702 26.0942ZM12.1491 19.4096V14.6378H15.0589C16.7929 14.6378 17.7894 15.4231 17.7894 16.9935C17.7894 18.6043 16.7929 19.4096 15.0589 19.4096H12.1491Z" fill="white"/>
<path d="M27.9575 15.1613C26.5026 15.1613 25.3267 15.7653 24.5693 16.8526V15.262H21.5V30.0002H24.5693V24.5237C25.3466 25.611 26.5225 26.215 28.0173 26.215C31.0269 26.215 33 24.0204 33 20.7385C33 17.3962 30.9671 15.1613 27.9575 15.1613ZM27.24 23.6378C25.6655 23.6378 24.5693 22.4298 24.5693 20.6378C24.5693 18.8862 25.6655 17.658 27.24 17.658C28.8145 17.658 29.8908 18.9063 29.8908 20.6378C29.8908 22.4096 28.8145 23.6378 27.24 23.6378Z" fill="white"/>
</svg>
