<svg width="40" height="40" viewBox="0 0 40 40" fill="none" xmlns="http://www.w3.org/2000/svg">
<path d="M26.6144 22.4282C25.812 21.9837 24.9027 21.8494 24.0041 21.8183C23.2552 21.7977 22.1319 21.3222 22.1319 19.9991C22.1319 19.0171 22.9557 18.2212 24.0148 18.1799C24.9134 18.1489 25.8227 18.0145 26.6251 17.57C28.1014 16.7534 29 15.234 29 13.5905C29 11.947 28.0907 10.4275 26.6251 9.61091C25.1381 8.79432 23.3301 8.79432 21.8538 9.62125C20.3775 10.4378 19.4789 11.9573 19.4789 13.6008C19.4789 14.4897 19.8105 15.3063 20.2277 16.0712C20.5807 16.7121 20.7519 17.9008 19.5537 18.5727C18.6551 19.0688 17.5318 18.7587 16.9755 17.8905C16.5048 17.1566 15.9378 16.4744 15.1355 16.0299C13.6592 15.203 11.8512 15.203 10.3749 16.0196C8.90932 16.8465 8 18.3556 8 19.9991C8 21.6426 8.90932 23.1621 10.3749 23.9787C11.8512 24.7953 13.6592 24.7953 15.1248 23.9787C15.9272 23.5342 16.4941 22.852 16.9648 22.1181C17.35 21.5186 18.3235 20.7537 19.543 21.4359C20.4417 21.932 20.7198 23.0277 20.217 23.9373C19.7998 24.6919 19.4682 25.5188 19.4682 26.4078C19.4682 28.0513 20.3775 29.5707 21.8431 30.3873C23.3194 31.2039 25.1274 31.2039 26.593 30.3873C28.0693 29.5707 28.9679 28.0513 28.9679 26.4078C28.9893 24.7642 28.08 23.2448 26.6144 22.4282Z" fill="white"/>
</svg>
