<svg width="40" height="40" viewBox="0 0 40 40" fill="none" xmlns="http://www.w3.org/2000/svg">
<path d="M15.0942 28.9998V26.3023H13V23.8569H15.0942V21.8905H13V18.7645H15.0942V10.9998H21.0628C23.4712 10.9998 25.2251 11.4703 26.3246 12.4115C27.4415 13.3527 28 14.6468 28 16.2939C28 17.2687 27.7731 18.1846 27.3194 19.0418C26.8656 19.8989 26.1065 20.588 25.0419 21.109C23.9948 21.63 22.5637 21.8905 20.7487 21.8905H19.0471V23.8569H23.0785V26.3023H19.0471V28.9998H15.0942ZM19.0471 18.7645H20.356C21.4729 18.7645 22.3543 18.5796 23 18.2098C23.6632 17.8401 23.9948 17.2435 23.9948 16.4199C23.9948 14.8905 22.9476 14.1258 20.8534 14.1258H19.0471V18.7645Z" fill="white"/>
</svg>
