<svg width="40" height="40" viewBox="0 0 40 40" fill="none" xmlns="http://www.w3.org/2000/svg">
<path d="M22.2181 17.7899V15.0738H28.3745V10.9998H11.6255V15.0738H17.7819V17.7899C12.8025 18.0615 9 19.0574 9 20.2343C9 21.4113 12.8025 22.4072 17.7819 22.6788V31.2796H22.2181V22.6788C27.1975 22.4072 31 21.5018 31 20.2343C31 18.9668 27.1975 18.0615 22.2181 17.7899ZM22.2181 21.864C22.1276 21.864 21.4033 21.864 20.0453 21.864C18.8683 21.864 18.0535 21.864 17.7819 21.7734C13.3457 21.6829 10.0864 20.9586 10.0864 19.9627C10.0864 18.9668 13.3457 18.2426 17.7819 18.0615V21.0491C18.0535 21.0491 18.8683 21.1397 20.0453 21.1397C21.4033 21.1397 22.1276 21.0491 22.2181 21.0491V18.152C26.6543 18.3331 29.9136 19.1479 29.9136 20.0533C29.9136 20.9586 26.6543 21.6829 22.2181 21.864Z" fill="white"/>
</svg>
