<svg width="40" height="40" viewBox="0 0 40 40" fill="none" xmlns="http://www.w3.org/2000/svg">
<circle cx="20" cy="20" r="20" fill="url(#paint0_linear_762_411)"/>
<path d="M29.9256 16.8595V19.146H11V16.8595H23.1488C23.6263 16.5657 23.865 16.2167 23.865 15.8127C23.865 15.1515 23.562 14.6189 22.9559 14.2149C22.3499 13.8108 21.4316 13.6088 20.2011 13.6088C18.3462 13.6088 16.5005 13.9853 14.6639 14.7383L13.6446 11.3499C15.775 10.45 17.9146 10 20.0634 10C21.7163 10 23.1579 10.2479 24.3884 10.7438C25.6373 11.2397 26.5923 11.9467 27.2534 12.865C27.933 13.7649 28.2727 14.8209 28.2727 16.0331C28.2727 16.3269 28.2452 16.6024 28.1901 16.8595H29.9256ZM11 20.6612H29.9256V22.9477H18.2452C17.4738 23.2966 17.0882 23.7557 17.0882 24.3251C17.0882 24.9495 17.3912 25.4545 17.9972 25.8402C18.6033 26.2075 19.5399 26.3912 20.8072 26.3912C21.9642 26.3912 23.1304 26.2443 24.3058 25.9504C25.4812 25.6566 26.5005 25.2617 27.3636 24.7658L28.4931 28.1267C27.3177 28.7328 26.0781 29.2011 24.7741 29.5317C23.4702 29.8439 22.1846 30 20.9174 30C19.2277 30 17.7585 29.7613 16.5096 29.2837C15.2792 28.7879 14.3241 28.09 13.6446 27.1901C12.9835 26.2718 12.6529 25.2066 12.6529 23.9945C12.6529 23.6272 12.6988 23.2782 12.7906 22.9477H11V20.6612Z" fill="white"/>
<defs>
<linearGradient id="paint0_linear_762_411" x1="40" y1="-2.38419e-06" x2="2.38419e-06" y2="40" gradientUnits="userSpaceOnUse">
<stop stop-color="#77D9A8"/>
<stop offset="1" stop-color="#62B37D"/>
</linearGradient>
</defs>
</svg>
